<?xml version="1.0" standalone="no"?><!DOCTYPE svg PUBLIC "-//W3C//DTD SVG 1.1//EN" "http://www.w3.org/Graphics/SVG/1.1/DTD/svg11.dtd"><svg t="1751702223720" class="icon" viewBox="0 0 1024 1024" version="1.1" xmlns="http://www.w3.org/2000/svg" p-id="3870" xmlns:xlink="http://www.w3.org/1999/xlink" width="200" height="200"><path d="M903.618 479.084v435.308l-136.804-25.322-60.312-72.348-254.12-282.508 215.752-153.298c108.074 142.652 111.482 107.876 111.482 107.876s53.384-79.7 121.872-11.214l2.13 1.506z" fill="#CCCCCC" p-id="3871"></path><path d="M381.414 446.21l448.622 577.392a81.14 81.14 0 0 1-7.92 0.398H88.672l292.742-577.79z" fill="#518EF8" p-id="3872"></path><path d="M668.136 380.916L0.894 942.496V202.778c0-45.024 36.508-81.504 81.504-81.504h486.578c-20.894 35.912 56.578 58.962 56.578 103.504 0 44.828 21.434 120.056 42.582 156.138z" fill="#28B446" p-id="3873"></path><path d="M903.618 914.392v28.104c0 42.328-32.278 77.132-73.582 81.106L454.626 653.134l90.872-92.092 209.734 206.952 11.582 11.44 136.804 134.958z" fill="#F2F2F2" p-id="3874"></path><path d="M645.028 460.176l-99.53 100.864-90.872 92.092L88.672 1024h-6.274C37.402 1024 0.894 987.492 0.894 942.496L569.402 366.38c10.646 18.226 83.86-0.228 98.736 14.534l27.34 35.144c13.342 14.226-61.918 29.016-50.45 44.118z" fill="#FFD837" p-id="3875"></path><path d="M213.808 455.55c-71.616 0-129.878-58.262-129.878-129.878s58.262-129.878 129.878-129.878c34.668 0 67.274 13.516 91.82 38.06l-30.114 30.108c-16.496-16.5-38.412-25.586-61.706-25.586-48.136 0-87.294 39.16-87.294 87.294s39.16 87.294 87.294 87.294c40.792 0 75.142-28.124 84.668-66.004h-84.668v-42.582h129.878v21.292c-0.002 71.618-58.262 129.88-129.878 129.88z" fill="#FFFFFF" p-id="3876"></path><path d="M568.976 121.276C611.132 48.772 689.684 0 779.618 0c134.476 0 243.488 109.012 243.488 243.488 0 33.726-6.87 65.832-19.248 95.044a243.952 243.952 0 0 1-52.49 77.528c-18.452 19.616-35.002 40.34-49.878 61.518-97.458 138.848-121.872 297.37-121.872 297.37s-26.514-172.12-134.59-314.772c-11.468-15.102-23.846-29.894-37.188-44.116h0.028a241.8 241.8 0 0 1-38.466-49.68c-21.15-36.082-33.272-78.068-33.272-122.894 0-44.54 11.952-86.3 32.846-122.21z" fill="#F14336" p-id="3877"></path><path d="M779.62 113.894c71.562 0 129.562 58.034 129.562 129.596s-58 129.562-129.562 129.562-129.596-58-129.596-129.562 58.036-129.596 129.596-129.596z" fill="#7E2D25" p-id="3878"></path></svg>